<?xml version="1.0" encoding="UTF-8"?>
<svg width="100%" height="100%" viewBox="0 0 1000 1000" xmlns="http://www.w3.org/2000/svg">
  <defs>
    <pattern id="smallDots" x="0" y="0" width="20" height="20" patternUnits="userSpaceOnUse">
      <circle cx="2" cy="2" r="1" fill="rgba(255,255,255,0.15)"/>
    </pattern>
    <pattern id="largeDots" x="0" y="0" width="50" height="50" patternUnits="userSpaceOnUse">
      <circle cx="25" cy="25" r="1.5" fill="rgba(255,255,255,0.2)"/>
    </pattern>
    <pattern id="grid" x="0" y="0" width="50" height="50" patternUnits="userSpaceOnUse">
      <path d="M 50 0 L 0 0 0 50" fill="none" stroke="rgba(255,255,255,0.1)" stroke-width="0.5"/>
    </pattern>
    <linearGradient id="fadeGradient" x1="0%" y1="0%" x2="0%" y2="100%">
      <stop offset="0%" style="stop-color:rgba(255,255,255,0.1)"/>
      <stop offset="50%" style="stop-color:rgba(255,255,255,0.05)"/>
      <stop offset="100%" style="stop-color:rgba(255,255,255,0.1)"/>
    </linearGradient>
    <filter id="glow">
      <feGaussianBlur stdDeviation="1" result="coloredBlur"/>
      <feMerge>
        <feMergeNode in="coloredBlur"/>
        <feMergeNode in="SourceGraphic"/>
      </feMerge>
    </filter>
  </defs>
  
  <!-- Base patterns -->
  <rect width="100%" height="100%" fill="url(#smallDots)"/>
  <rect width="100%" height="100%" fill="url(#largeDots)"/>
  <rect width="100%" height="100%" fill="url(#grid)"/>
  
  <!-- Decorative waves -->
  <path d="M0,400 C250,350 750,450 1000,400 L1000,1000 0,1000" fill="url(#fadeGradient)" opacity="0.1"/>
  <path d="M0,600 C250,550 750,650 1000,600 L1000,1000 0,1000" fill="url(#fadeGradient)" opacity="0.1"/>
  
  <!-- Glowing elements -->
  <g filter="url(#glow)">
    <circle cx="200" cy="300" r="2" fill="rgba(255,255,255,0.4)"/>
    <circle cx="800" cy="400" r="2" fill="rgba(255,255,255,0.4)"/>
    <circle cx="500" cy="200" r="2" fill="rgba(255,255,255,0.4)"/>
    <circle cx="300" cy="600" r="2" fill="rgba(255,255,255,0.4)"/>
    <circle cx="700" cy="500" r="2" fill="rgba(255,255,255,0.4)"/>
  </g>
</svg>
