<?xml version="1.0" encoding="UTF-8"?>
<svg width="100%" height="100%" viewBox="0 0 1000 1000" xmlns="http://www.w3.org/2000/svg">
  <defs>
    <!-- Gradient tanımları -->
    <linearGradient id="glowGradient" x1="0%" y1="0%" x2="100%" y2="100%">
      <stop offset="0%" style="stop-color:rgba(12, 45, 111, 0.75)"/>
      <stop offset="50%" style="stop-color:rgba(99,102,241,0.75)"/>
      <stop offset="100%" style="stop-color:rgba(129,140,248,0.75)"/>
    </linearGradient>
    
    <!-- Pattern tanımları -->
    <pattern id="smallDots" x="0" y="0" width="40" height="40" patternUnits="userSpaceOnUse">
      <circle cx="20" cy="20" r="1.5" fill="rgba(67, 122, 231, 0.79)"/>
    </pattern>
    
    <pattern id="mediumDots" x="0" y="0" width="80" height="80" patternUnits="userSpaceOnUse">
      <circle cx="40" cy="40" r="2" fill="rgba(28, 53, 81, 0.61)"/>
    </pattern>
    
    <pattern id="grid" x="0" y="0" width="100" height="100" patternUnits="userSpaceOnUse">
      <line x1="0" y1="50" x2="100" y2="50" stroke="rgba(79,70,229,0.2)" stroke-width="1"/>
      <line x1="50" y1="0" x2="50" y2="100" stroke="rgba(99,102,241,0.2)" stroke-width="1"/>
    </pattern>
    
    <!-- Filtreler -->
    <filter id="glow">
      <feGaussianBlur stdDeviation="2" result="blur"/>
      <feComposite in="SourceGraphic" in2="blur" operator="over"/>
    </filter>
  </defs>
  
  <!-- Ana şekiller -->
  <rect width="100%" height="100%" fill="url(#smallDots)"/>
  <rect width="100%" height="100%" fill="url(#mediumDots)"/>
  <rect width="100%" height="100%" fill="url(#grid)"/>
  
  <!-- Parlayan noktalar -->
  <g filter="url(#glow)">
    <circle cx="200" cy="200" r="3" fill="rgb(103, 112, 127,0.6)"/>
    <circle cx="800" cy="300" r="3" fill="rgba(103, 112, 127, 0.6)"/>
    <circle cx="300" cy="700" r="3" fill="rgba(103, 112, 127, 0.6)"/>
    <circle cx="700" cy="600" r="3" fill="rgba(103, 112, 127, 0.6)"/>
    <circle cx="500" cy="400" r="3" fill="rgba(103, 112, 127, 0.6)"/>
  </g>
  
  <!-- Dekoratif çizgiler -->
  <path d="M0,200 C200,150 400,250 600,200 S800,150 1000,200" stroke="rgba(79,70,229,0.3)" stroke-width="2" fill="none"/>
  <path d="M0,400 C200,350 400,450 600,400 S800,350 1000,400" stroke="rgba(99,102,241,0.3)" stroke-width="2" fill="none"/>
  <path d="M0,600 C200,550 400,650 600,600 S800,550 1000,600" stroke="rgba(129,140,248,0.3)" stroke-width="2" fill="none"/>
</svg>
